<?xml version="1.0" encoding="UTF-8"?>
<svg id="Layer_1" data-name="Layer 1" xmlns="http://www.w3.org/2000/svg" viewBox="0 0 17.403 23.202">
  <path d="M6.768,11.601H.967c-.534,0-.967.432-.967.967h0v9.667h0c0,.534.432.967.967.967h6.767v-10.634c0-.534-.432-.967-.967-.967h0ZM11.601,5.8h-5.801c-.534,0-.967.432-.967.967h0v4.35h1.933c.801,0,1.449.65,1.45,1.45v10.634h4.35V6.766c0-.534-.432-.967-.967-.967h.002ZM17.402.966v21.269h0c0,.534-.432.967-.967.967h-3.384V6.767c0-.801-.65-1.449-1.45-1.45h-1.933V.967h0c0-.534.432-.967.967-.967h5.801c.534,0,.967.432.967.967h0Z"/>
</svg>